<?xml version="1.0" encoding="utf-8"?>
<!-- Generator: Adobe Illustrator 27.5.0, SVG Export Plug-In . SVG Version: 6.00 Build 0)  -->
<svg version="1.1" id="Layer_1" xmlns="http://www.w3.org/2000/svg" xmlns:xlink="http://www.w3.org/1999/xlink" x="0px" y="0px"
	 viewBox="0 0 128 128" style="enable-background:new 0 0 128 128;" xml:space="preserve">
<style type="text/css">
	.st0{fill:#A381FF;}
</style>
<path class="st0" d="M116,38c0-7.1-2.8-13.8-8-18.7c-5.1-4.9-11.9-7.5-19-7.2c-13.5,0.5-24.5,11.5-25,25c0,0.3,0,1,0,1H44
	c-17.6,0-32,14.4-32,32c0,17.3,13.9,31.5,31.1,32l10.2,11.9c1.1,1.4,2.9,2.2,4.7,2.2s3.6-0.8,4.7-2.1L72.9,102
	c17.2-0.5,31.1-14.7,31.1-32c0-2-0.2-4-0.6-6H116V38z M100,70c0,15.4-12.6,28-28,28h-0.9l-11.4,13.3c-0.8,0.9-2.5,0.9-3.3,0L44.9,98
	H44c-15.4,0-28-12.6-28-28s12.6-28,28-28h20.3c0.8,6,3.2,10.1,7,14c4.9,5.1,11.6,8,18.7,8h9.3C99.8,66,100,68,100,70z M112,60H90
	c-6,0-11.7-2.4-15.9-6.7C70,48.9,67.8,43.2,68,37.1c0.4-11.2,9.9-20.7,21.1-21.1c0.3,0,0.6,0,0.9,0c5.7,0,11.1,2.2,15.2,6.1
	c4.4,4.2,6.7,9.8,6.7,15.9V60z"/>
<path class="st0" d="M90,46c-2.2,0-4,1.8-4,4s1.8,4,4,4s4-1.8,4-4S92.2,46,90,46z"/>
<path class="st0" d="M48,52h12v4H48V52z"/>
<path class="st0" d="M48,60h20v4H48V60z"/>
<path class="st0" d="M48,68h28v4H48V68z"/>
<path class="st0" d="M24,76h68v4H24V76z"/>
<path class="st0" d="M38,84h40v4H38V84z"/>
<path class="st0" d="M90,24c-4.4,0-8,4-8,8h4c0-2,1.8-4,4-4s4,1.8,4,4s-1.8,4-4,4h-2v6h4v-2.3c2-0.9,6-4,6-7.7
	C98,27.6,94.4,24,90,24z"/>
<path class="st0" d="M40,72H24v-4c0-8.8,7.2-16,16-16l0,0V72z"/>
</svg>
