<?xml version="1.0" encoding="utf-8"?>
<!-- Generator: Adobe Illustrator 27.5.0, SVG Export Plug-In . SVG Version: 6.00 Build 0)  -->
<svg version="1.1" id="Layer_1" xmlns="http://www.w3.org/2000/svg" xmlns:xlink="http://www.w3.org/1999/xlink" x="0px" y="0px"
	 viewBox="0 0 128 128" style="enable-background:new 0 0 128 128;" xml:space="preserve">
<style type="text/css">
	.st0{fill:#A381FF;}
</style>
<path class="st0" d="M99,48.8L79.2,29l8.5-8.5c0.8-0.8,2-0.8,2.8,0l16.9,16.9c0.8,0.8,0.8,2,0,2.8L99,48.8z"/>
<path class="st0" d="M101.4,52l8.9-8.9c2.3-2.3,2.3-6.1,0-8.5L93.3,17.8c-2.3-2.3-6.1-2.3-8.5,0L76,26.6c-1.3-0.4-2.8,0-3.8,1
	l-2.8,2.8c-1,1-1.4,2.5-1,3.8L22.4,80.2l-1,1L21,81.6l-4.7,19.9c-0.7,2.9,0.2,5.9,2.3,8s5.1,2.9,8,2.2l19.9-4.7l0.4-0.4l1-1
	l45.9-45.9c1.3,0.3,2.8,0,3.8-1l2.8-2.8C101.4,54.8,101.7,53.3,101.4,52z M94.7,55.8L72.2,33.3l2.8-2.8L97.6,53L94.7,55.8z
	 M46.9,100.8c-0.6-2.1-1.4-4.2-2.4-6.1L86.3,53l4.2,4.2L46.9,100.8z M29.8,106.9c-0.2-2.1-1.2-4.2-2.8-5.9c-1.6-1.7-3.7-2.6-5.9-2.8
	l1.4-5.9c3.3,0.5,6.3,2.1,8.7,4.4s3.9,5.4,4.4,8.7L29.8,106.9z M34.1,93.9c-2.9-2.9-6.6-4.8-10.6-5.5l0.9-3.9
	c4.8,0.9,9.1,3.1,12.5,6.6s5.7,7.7,6.6,12.5l-3.9,0.9C38.9,100.5,37,96.8,34.1,93.9z M39.7,88.3c-1-1-2-1.8-3-2.6l41.1-41.1l5.6,5.6
	L42.3,91.3C41.5,90.3,40.7,89.2,39.7,88.3z M33.2,83.5c-1.9-1-3.9-1.8-6.1-2.4l43.6-43.6l4.2,4.2L33.2,83.5z M87.7,20.6
	c0.8-0.8,2-0.8,2.8,0l16.9,16.9c0.8,0.8,0.8,2,0,2.8L99,48.8L79.2,29L87.7,20.6z"/>
</svg>
