<?xml version="1.0" encoding="utf-8"?>
<!-- Generator: Adobe Illustrator 27.5.0, SVG Export Plug-In . SVG Version: 6.00 Build 0)  -->
<svg version="1.1" id="Layer_1" xmlns="http://www.w3.org/2000/svg" xmlns:xlink="http://www.w3.org/1999/xlink" x="0px" y="0px"
	 viewBox="0 0 128 128" style="enable-background:new 0 0 128 128;" xml:space="preserve">
<style type="text/css">
	.st0{fill:#A381FF;}
</style>
<path class="st0" d="M29.5,42.7h8v4h-8V42.7z"/>
<path class="st0" d="M97.5,54.7c0,3.3,2.7,6,6,6s6-2.7,6-6v-8c0-3.3-2.7-6-6-6h-38c-4.4,0-8,3.6-8,8s3.6,8,8,8s8-3.6,8-8
	c0-1.5-0.4-2.8-1.1-4h25.1V54.7z M103.5,44.7c1.1,0,2,0.9,2,2v8c0,1.1-0.9,2-2,2s-2-0.9-2-2v-10H103.5z M69.5,48.7c0,2.2-1.8,4-4,4
	c-2.2,0-4-1.8-4-4s1.8-4,4-4C67.7,44.7,69.5,46.5,69.5,48.7z"/>
<path class="st0" d="M65.5,88.7h4v12h-4V88.7z"/>
<path class="st0" d="M81.5,60.7h12v4h-12V60.7z"/>
<path class="st0" d="M81.5,52.7h12v4h-12V52.7z"/>
<path class="st0" d="M97.5,64.7v4h-52v-32c0-3.1-1.2-5.9-3.1-8h49.1c3.3,0,6,2.7,6,6v2h4v-2c0-5.5-4.5-10-10-10h-58
	c-6.6,0-12,5.4-12,12v38c0,3.3,2.7,6,6,6h16h10v4c0,2.2,1.8,4,4,4v16h-20v4h48v-4h-8v-16c2.2,0,4-1.8,4-4v-4h14c3.3,0,6-2.7,6-6v-10
	H97.5z M41.5,76.7h-14c-1.1,0-2-0.9-2-2V37.1c0-4.2,3-7.9,7.2-8.3c4.8-0.5,8.8,3.3,8.8,8V76.7z M73.5,104.7h-12v-16h12V104.7z
	 M77.5,84.7h-20v-4h20V84.7z M97.5,74.7c0,1.1-0.9,2-2,2h-50v-4h52V74.7z"/>
</svg>
