<?xml version="1.0" encoding="utf-8"?>
<!-- Generator: Adobe Illustrator 27.5.0, SVG Export Plug-In . SVG Version: 6.00 Build 0)  -->
<svg version="1.1" id="Layer_1" xmlns="http://www.w3.org/2000/svg" xmlns:xlink="http://www.w3.org/1999/xlink" x="0px" y="0px"
	 viewBox="0 0 128 128" style="enable-background:new 0 0 128 128;" xml:space="preserve">
<style type="text/css">
	.st0{fill:#A381FF;}
</style>
<path class="st0" d="M90,30c-4.4,0-8,3.6-8,8s3.6,8,8,8s8-3.6,8-8S94.4,30,90,30z"/>
<path class="st0" d="M117,38c0-14.3-11.7-26-26-26c-6.9,0-13.5,2.7-18.4,7.6c-2.4,2.4-4.3,5.3-5.6,8.4H31c-3.3,0-6,2.7-6,6v2h-2
	c-3.3,0-6,2.7-6,6v68c0,3.3,2.7,6,6,6h64c3.3,0,6-2.7,6-6l0-2h2c3.3,0,6-2.7,6-6V62h-0.1c3.1-1.3,6-3.2,8.5-5.6
	C114.3,51.5,117,44.9,117,38z M29,34c0-1.1,0.9-2,2-2h34.7c-0.3,1.3-0.5,2.6-0.6,4H29V34z M97,102c0,1.1-0.9,2-2,2h-2l0-40.1
	c1.4-0.1,2.7-0.3,4-0.6V102z M91,60C91,60,91,60,91,60h-2l0,50c0,1.1-0.9,2-2,2H23c-1.1,0-2-0.9-2-2V42c0-1.1,0.9-2,2-2h46v-2
	c0-5.9,2.3-11.4,6.4-15.6C79.6,18.3,85.1,16,91,16c12.1,0,22,9.9,22,22c0,5.9-2.3,11.4-6.4,15.5C102.4,57.7,96.9,60,91,60z"/>
<path class="st0" d="M90,22c-8.8,0-16,7.2-16,16h4c0-6.6,5.4-12,12-12V22z"/>
<path class="st0" d="M102,38c0,6.6-5.4,12-12,12v4c8.8,0,16-7.2,16-16H102z"/>
<path class="st0" d="M72,54H52c-3.3,0-6,2.7-6,6v8v2v10.1c-1.7-1.3-3.7-2.1-6-2.1c-5.5,0-10,4.5-10,10s4.5,10,10,10s10-4.5,10-10V70
	h24v10.1c-1.7-1.3-3.7-2.1-6-2.1c-5.5,0-10,4.5-10,10s4.5,10,10,10s10-4.5,10-10V70v-2v-8C78,56.7,75.3,54,72,54z M40,94
	c-3.3,0-6-2.7-6-6s2.7-6,6-6s6,2.7,6,6S43.3,94,40,94z M68,94c-3.3,0-6-2.7-6-6s2.7-6,6-6s6,2.7,6,6S71.3,94,68,94z M50,60
	c0-1.1,0.9-2,2-2h20c1.1,0,2,0.9,2,2v6H50V60z"/>
</svg>
