<?xml version="1.0" encoding="UTF-8"?>
<svg id="Layer_2" data-name="Layer 2" xmlns="http://www.w3.org/2000/svg" xmlns:xlink="http://www.w3.org/1999/xlink" viewBox="0 0 124.93 76.78">
  <defs>
    <style>
      .cls-1 {
        fill: url(#linear-gradient-2);
      }

      .cls-2 {
        fill: #9a7dff;
      }

      .cls-3 {
        fill: url(#linear-gradient);
      }
    </style>
    <linearGradient id="linear-gradient" x1="-429.73" y1="329.89" x2="-429.55" y2="290.73" gradientTransform="translate(897.53 659.71) scale(2 -2)" gradientUnits="userSpaceOnUse">
      <stop offset="0" stop-color="#9a7dff"/>
      <stop offset="1" stop-color="#8e80ba"/>
    </linearGradient>
    <linearGradient id="linear-gradient-2" x1="-429.64" y1="326.77" x2="-429.64" y2="294.74" gradientTransform="translate(897.53 659.71) scale(2 -2)" gradientUnits="userSpaceOnUse">
      <stop offset="0" stop-color="#816bcc"/>
      <stop offset="1" stop-color="#e6abff"/>
    </linearGradient>
  </defs>
  <g id="Layer_1-2" data-name="Layer 1">
    <g>
      <path class="cls-3" d="m38.25,76.78C17.16,76.78,0,59.62,0,38.53S17.16.29,38.25.29s38.25,17.16,38.25,38.25-17.16,38.25-38.25,38.25Zm0-73.55C18.78,3.23,2.94,19.07,2.94,38.53s15.84,35.3,35.3,35.3,35.3-15.84,35.3-35.3S57.71,3.23,38.25,3.23Z"/>
      <path class="cls-1" d="m38.25,70.9c-17.84,0-32.36-14.52-32.36-32.36S20.4,6.17,38.25,6.17s32.36,14.52,32.36,32.36-14.52,32.36-32.36,32.36Zm0-61.78c-16.22,0-29.42,13.2-29.42,29.42s13.2,29.42,29.42,29.42,29.42-13.2,29.42-29.42-13.2-29.42-29.42-29.42Z"/>
    </g>
    <path class="cls-2" d="m101.14,76.35c-1.5,0-3.28-.05-5.36-.15-2.08-.1-4.2-.24-6.38-.41-2.18-.17-4.24-.36-6.17-.56s-3.56-.44-4.85-.71v-6.23c1.7.14,3.78.27,6.23.41,2.45.14,5.09.24,7.91.31,2.82.07,5.6.1,8.32.1,3.06,0,5.82-.31,8.27-.92,2.45-.61,4.41-1.74,5.87-3.37,1.46-1.63,2.19-3.98,2.19-7.04v-5.1c0-3.47-.88-6.11-2.65-7.91-1.77-1.8-4.63-2.7-8.57-2.7h-8.06c-6.19,0-11.04-1.36-14.55-4.08-3.5-2.72-5.26-7.42-5.26-14.09v-4.29c0-7.08,1.9-12.11,5.72-15.11,3.81-2.99,9.19-4.49,16.13-4.49,2.18,0,4.63.12,7.35.36,2.72.24,5.36.51,7.91.82s4.68.63,6.38.97v6.23c-3-.27-6.38-.51-10.16-.71s-7.33-.31-10.67-.31c-3.06,0-5.72.36-7.96,1.07-2.25.71-3.96,1.97-5.16,3.78-1.19,1.8-1.79,4.37-1.79,7.71v3.47c0,4.15,1.09,7.01,3.27,8.57,2.18,1.57,5.21,2.35,9.08,2.35h8.68c4.15,0,7.55.75,10.21,2.25,2.65,1.5,4.63,3.56,5.92,6.17,1.29,2.62,1.94,5.63,1.94,9.03v5.82c0,5.04-1.07,8.92-3.21,11.64s-5,4.59-8.57,5.61c-3.57,1.02-7.57,1.53-11.99,1.53Z"/>
  </g>
</svg>