<?xml version="1.0" encoding="utf-8"?>
<!-- Generator: Adobe Illustrator 27.5.0, SVG Export Plug-In . SVG Version: 6.00 Build 0)  -->
<svg version="1.1" id="Layer_1" xmlns="http://www.w3.org/2000/svg" xmlns:xlink="http://www.w3.org/1999/xlink" x="0px" y="0px"
	 viewBox="0 0 128 128" style="enable-background:new 0 0 128 128;" xml:space="preserve">
<style type="text/css">
	.st0{fill:#A381FF;}
</style>
<path class="st0" d="M76,72h12c1.1,0,2-0.9,2-2V54c0-1.1-0.9-2-2-2H76c-1.1,0-2,0.9-2,2v16C74,71.1,74.9,72,76,72z"/>
<path class="st0" d="M98,20h-4c0-2.2-1.8-4-4-4H74c0-2.2-1.8-4-4-4H58c-2.2,0-4,1.8-4,4H38c-2.2,0-4,1.8-4,4h-4c-2.2,0-4,1.8-4,4v88
	c0,2.2,1.8,4,4,4h68c2.2,0,4-1.8,4-4V24C102,21.8,100.2,20,98,20z M58,16h12v10c0,3.3-2.7,6-6,6s-6-2.7-6-6V16z M30,24h24v2
	c0,5.5,4.5,10,10,10s10-4.5,10-10v-2h24v64H78c-2.2,0-4,1.8-4,4v20H30V24z M78,112V92h20v20H78z"/>
<path class="st0" d="M38,44h52v4H38V44z"/>
<path class="st0" d="M38,52h28v4H38V52z"/>
<path class="st0" d="M38,60h28v4H38V60z"/>
<path class="st0" d="M38,68h28v4H38V68z"/>
<path class="st0" d="M74,76h16v4H74V76z"/>
<path class="st0" d="M38,96h4v8h-4V96z"/>
<path class="st0" d="M46,96h4v8h-4V96z"/>
<path class="st0" d="M54,96h4v8h-4V96z"/>
<path class="st0" d="M62,96h4v8h-4V96z"/>
<path class="st0" d="M82,100v4h4v-4h4v-4h-4C83.8,96,82,97.8,82,100z"/>
<path class="st0" d="M38,76h28v4H38V76z"/>
</svg>
