<?xml version="1.0" encoding="utf-8"?>
<!-- Generator: Adobe Illustrator 27.5.0, SVG Export Plug-In . SVG Version: 6.00 Build 0)  -->
<svg version="1.1" id="Layer_1" xmlns="http://www.w3.org/2000/svg" xmlns:xlink="http://www.w3.org/1999/xlink" x="0px" y="0px"
	 viewBox="0 0 128 128" style="enable-background:new 0 0 128 128;" xml:space="preserve">
<style type="text/css">
	.st0{fill:#A381FF;}
</style>
<path class="st0" d="M114,76c0-9.6-6.2-17.7-14.7-20.7l1.2-10.2C101,42.1,104,40,106,40h4v-6c0-5.5-4.5-10-10-10H77.4l-1.7-5.1
	c-1.4-4.1-5.2-6.9-9.5-6.9h-8.4c-4.3,0-8.2,2.8-9.5,6.9L46.6,24H24c-5.5,0-10,4.5-10,10v6h4c2,0,5,2.1,5.5,5.1l9.4,62.5
	c0.8,4.9,4.9,8.4,9.9,8.4h38.3c5,0,9.1-3.6,9.9-8.4l1.5-9.6C104.4,97.7,114,87.9,114,76z M52.1,20.1c0.8-2.5,3.1-4.1,5.7-4.1h8.4
	c2.6,0,4.9,1.7,5.7,4.1l1.3,3.9h-3.8l-1.1-3.3c-0.5-1.6-2.1-2.7-3.8-2.7h-5.1c-1.7,0-3.2,1.1-3.8,2.7L54.6,24h-3.8L52.1,20.1z
	 M18,34c0-3.3,2.7-6,6-6h29.2h17.6H100c3.3,0,6,2.7,6,6v2H18V34z M87.1,106.9c-0.5,2.9-3,5.1-5.9,5.1h-7.9l-0.9-1.8
	c-0.7-1.4-2.1-2.2-3.6-2.2H55.2c-1.5,0-2.9,0.8-3.6,2.2l-0.9,1.8h-7.9c-3,0-5.3-2.1-5.7-5.1l-9.7-62.5c-0.3-1.7-1-3.2-2-4.4H34v10h4
	V40h6v22h4V40h6v16h4V40h6v10h4V40h30.5c-1,1.3-1.7,2.8-2,4.4l-1.2,9.8C94.3,54.1,93.1,54,92,54c-12.1,0-22,9.9-22,22v22h18.5
	L87.1,106.9z M92,94H74V76c0-9.9,8.1-18,18-18s18,8.1,18,18S101.9,94,92,94z"/>
<path class="st0" d="M100,68c-2.2,0-4,1.8-4,4s1.8,4,4,4s4-1.8,4-4S102.2,68,100,68z"/>
<path class="st0" d="M84,68c-2.2,0-4,1.8-4,4s1.8,4,4,4s4-1.8,4-4S86.2,68,84,68z"/>
<path class="st0" d="M98.9,86c0.6,0,1.1-0.6,1-1.2C99.3,81,96,78,92,78s-7.3,3-7.9,6.8c-0.1,0.6,0.4,1.2,1,1.2H98.9z"/>
</svg>
